<svg width="104" height="32" viewBox="0 0 104 32" fill="none" xmlns="http://www.w3.org/2000/svg">
<g filter="url(#filter0_d_452_259)">
<path d="M88.0001 0.899414L91.4304 8.20556L99.1001 9.3897L93.5501 15.0736L94.8659 23.0994L88.0067 19.3062L81.1396 23.0968L82.4554 15.0709L76.9001 9.38444L84.5699 8.2003L88.0001 0.899414Z" fill="#FFCA0F" stroke="#FFCA0F" stroke-width="1.5" stroke-linecap="round" stroke-linejoin="round"/>
</g>
<g filter="url(#filter1_d_452_259)">
<path d="M64.0001 0.899414L67.4304 8.20556L75.1001 9.3897L69.5501 15.0736L70.8659 23.0994L64.0067 19.3062L57.1396 23.0968L58.4554 15.0709L52.9001 9.38444L60.5699 8.2003L64.0001 0.899414Z" fill="#FFCA0F" stroke="#FFCA0F" stroke-width="1.5" stroke-linecap="round" stroke-linejoin="round"/>
</g>
<g filter="url(#filter2_d_452_259)">
<path d="M40.0001 0.899414L43.4304 8.20556L51.1001 9.3897L45.5501 15.0736L46.8659 23.0994L40.0067 19.3062L33.1396 23.0968L34.4554 15.0709L28.9001 9.38444L36.5699 8.2003L40.0001 0.899414Z" fill="#FFCA0F" stroke="#FFCA0F" stroke-width="1.5" stroke-linecap="round" stroke-linejoin="round"/>
</g>
<g filter="url(#filter3_d_452_259)">
<path d="M16.0001 0.899414L19.4304 8.20556L27.1001 9.3897L21.5501 15.0736L22.8659 23.0994L16.0067 19.3062L9.13962 23.0968L10.4554 15.0709L4.90015 9.38444L12.5699 8.2003L16.0001 0.899414Z" fill="#FFCA0F" stroke="#FFCA0F" stroke-width="1.5" stroke-linecap="round" stroke-linejoin="round"/>
</g>
<defs>
<filter id="filter0_d_452_259" x="72" y="0" width="32" height="32" filterUnits="userSpaceOnUse" color-interpolation-filters="sRGB">
<feFlood flood-opacity="0" result="BackgroundImageFix"/>
<feColorMatrix in="SourceAlpha" type="matrix" values="0 0 0 0 0 0 0 0 0 0 0 0 0 0 0 0 0 0 127 0" result="hardAlpha"/>
<feOffset dy="4"/>
<feGaussianBlur stdDeviation="2"/>
<feComposite in2="hardAlpha" operator="out"/>
<feColorMatrix type="matrix" values="0 0 0 0 0 0 0 0 0 0 0 0 0 0 0 0 0 0 0.25 0"/>
<feBlend mode="normal" in2="BackgroundImageFix" result="effect1_dropShadow_452_259"/>
<feBlend mode="normal" in="SourceGraphic" in2="effect1_dropShadow_452_259" result="shape"/>
</filter>
<filter id="filter1_d_452_259" x="48" y="0" width="32" height="32" filterUnits="userSpaceOnUse" color-interpolation-filters="sRGB">
<feFlood flood-opacity="0" result="BackgroundImageFix"/>
<feColorMatrix in="SourceAlpha" type="matrix" values="0 0 0 0 0 0 0 0 0 0 0 0 0 0 0 0 0 0 127 0" result="hardAlpha"/>
<feOffset dy="4"/>
<feGaussianBlur stdDeviation="2"/>
<feComposite in2="hardAlpha" operator="out"/>
<feColorMatrix type="matrix" values="0 0 0 0 0 0 0 0 0 0 0 0 0 0 0 0 0 0 0.25 0"/>
<feBlend mode="normal" in2="BackgroundImageFix" result="effect1_dropShadow_452_259"/>
<feBlend mode="normal" in="SourceGraphic" in2="effect1_dropShadow_452_259" result="shape"/>
</filter>
<filter id="filter2_d_452_259" x="24" y="0" width="32" height="32" filterUnits="userSpaceOnUse" color-interpolation-filters="sRGB">
<feFlood flood-opacity="0" result="BackgroundImageFix"/>
<feColorMatrix in="SourceAlpha" type="matrix" values="0 0 0 0 0 0 0 0 0 0 0 0 0 0 0 0 0 0 127 0" result="hardAlpha"/>
<feOffset dy="4"/>
<feGaussianBlur stdDeviation="2"/>
<feComposite in2="hardAlpha" operator="out"/>
<feColorMatrix type="matrix" values="0 0 0 0 0 0 0 0 0 0 0 0 0 0 0 0 0 0 0.25 0"/>
<feBlend mode="normal" in2="BackgroundImageFix" result="effect1_dropShadow_452_259"/>
<feBlend mode="normal" in="SourceGraphic" in2="effect1_dropShadow_452_259" result="shape"/>
</filter>
<filter id="filter3_d_452_259" x="0" y="0" width="32" height="32" filterUnits="userSpaceOnUse" color-interpolation-filters="sRGB">
<feFlood flood-opacity="0" result="BackgroundImageFix"/>
<feColorMatrix in="SourceAlpha" type="matrix" values="0 0 0 0 0 0 0 0 0 0 0 0 0 0 0 0 0 0 127 0" result="hardAlpha"/>
<feOffset dy="4"/>
<feGaussianBlur stdDeviation="2"/>
<feComposite in2="hardAlpha" operator="out"/>
<feColorMatrix type="matrix" values="0 0 0 0 0 0 0 0 0 0 0 0 0 0 0 0 0 0 0.25 0"/>
<feBlend mode="normal" in2="BackgroundImageFix" result="effect1_dropShadow_452_259"/>
<feBlend mode="normal" in="SourceGraphic" in2="effect1_dropShadow_452_259" result="shape"/>
</filter>
</defs>
</svg>
