<svg width="138" height="39" viewBox="0 0 138 39" fill="none" xmlns="http://www.w3.org/2000/svg">
<path d="M66.1225 30.4662H61.8501C61.8309 30.4662 61.8194 30.4624 61.808 30.449L58.1268 25.9527L54.4418 30.449C54.4341 30.4624 54.4207 30.4662 54.4016 30.4662H50.9806C50.9595 30.4662 50.9442 30.4567 50.9289 30.4337C50.9232 30.4203 50.9232 30.3954 50.9366 30.3801L56.3589 23.7199L50.9997 17.1229C50.9844 17.0999 50.9844 17.0808 50.9902 17.0597C50.9997 17.0482 51.0208 17.0291 51.038 17.0291H55.3123C55.3257 17.0291 55.341 17.0368 55.3525 17.0559L58.5821 21.0585L61.8692 17.054C61.8788 17.0368 61.8941 17.0291 61.9094 17.0291H65.3935C65.4145 17.0291 65.4356 17.0482 65.4432 17.0597C65.4528 17.0808 65.449 17.1037 65.4356 17.1229L60.3481 23.232L66.1588 30.3801C66.1741 30.3954 66.1799 30.4203 66.1684 30.4337C66.1588 30.4567 66.1397 30.4662 66.1225 30.4662Z" fill="white"/>
<path d="M89.2464 19.3981C87.3541 19.3981 86.0626 20.5461 85.6934 22.5417H92.1297V22.4135C92.1297 20.8159 90.953 19.3981 89.2464 19.3981ZM95.4493 24.5889C95.4397 24.6042 95.4206 24.6138 95.4034 24.6138H85.6245C85.8273 26.8906 87.3063 28.1878 89.6998 28.1878C91.1731 28.1878 92.7381 27.6846 94.9499 26.508C94.9901 26.485 95.0303 26.5194 95.0303 26.5615L95.0264 29.5692C95.0226 29.5941 95.0111 29.6094 94.9939 29.6152C92.9371 30.4819 90.8707 31.0731 89.2464 31.0731C85.0352 31.0731 81.9835 28.0042 81.9835 23.7777C81.9835 19.5512 85.0352 16.4823 89.2464 16.4823C93.0883 16.4823 95.5564 19.071 95.5564 22.6316C95.5564 23.2075 95.4569 24.5468 95.4493 24.5889Z" fill="white"/>
<path d="M115.314 14.2553C114.115 14.2553 113.139 13.2948 113.139 12.1124C113.139 10.8955 114.115 9.91015 115.314 9.91015C116.514 9.91015 117.492 10.8955 117.492 12.1124C117.492 13.2948 116.514 14.2553 115.314 14.2553ZM113.558 30.4666C113.523 30.4666 113.502 30.4456 113.502 30.4112V17.085C113.502 17.0582 113.522 17.0372 113.544 17.0315H117.076C117.105 17.0372 117.12 17.0582 117.12 17.085V30.4112C117.12 30.4456 117.097 30.4666 117.069 30.4666H113.558Z" fill="white"/>
<path d="M72.5821 28.4595C71.9449 28.4595 71.2925 28.3696 70.5425 28.1687L70.5501 19.6201C71.4284 19.3408 72.1918 19.2087 72.9475 19.2087C75.3965 19.2087 77.0401 21.0149 77.0401 23.6973C77.0401 26.5902 75.2894 28.4595 72.5821 28.4595ZM73.5426 16.4842C72.5457 16.4842 71.5393 16.666 70.4832 17.0295H66.9684C66.9397 17.0295 66.9187 17.0544 66.9187 17.085V38.9387C67.9806 38.7933 69.2816 38.4144 70.5444 37.5152L70.5425 30.8684C71.4092 30.9908 72.1248 31.0731 72.8155 31.0731C77.6294 31.0731 80.7442 28.1879 80.7442 23.7203C80.7442 19.4613 77.7805 16.4842 73.5426 16.4842Z" fill="white"/>
<path d="M107.127 27.3529C106.026 27.9307 105.043 28.2043 104.119 28.2043C101.94 28.2043 100.633 26.6641 100.633 24.085C100.633 21.1003 102.301 19.1697 104.88 19.1697C105.592 19.1697 106.285 19.3438 107.127 19.7246V27.3529ZM107.127 9.97441V16.9503C106.095 16.6557 105.186 16.5198 104.27 16.5198C100.082 16.5198 96.9191 19.6768 96.9191 23.8707C96.9191 28.0455 99.7087 31.0724 103.547 31.0724C104.876 31.0724 106.12 30.7395 107.584 29.9856L107.582 31.1891C108.548 31.0054 109.658 30.6189 110.752 29.844V8.54709C109.677 8.69059 108.403 9.05029 107.127 9.97441Z" fill="white"/>
<path d="M129.357 27.3265C128.294 27.9407 127.381 28.2353 126.566 28.2353C124.232 28.2353 122.833 26.7009 122.833 24.1122C122.833 21.1714 124.48 19.1988 126.929 19.1988C127.586 19.1988 128.382 19.4495 129.357 19.9661V27.3265ZM132.987 16.8684C132.987 16.7862 132.916 16.7211 132.836 16.7211L129.981 16.7249C129.897 16.7249 129.826 16.7976 129.826 16.878V17.364H129.753C128.435 16.7862 127.312 16.5202 126.204 16.5202C122.255 16.5202 119.16 19.7939 119.16 23.9897C119.16 28.2315 121.93 31.0747 126.053 31.0747C127.157 31.0747 128.571 30.9982 129.895 29.4752V31.1895C130.831 30.9905 131.935 30.5925 132.983 29.8387L132.987 16.8684Z" fill="white"/>
<path d="M41.2085 27.1317L50.0747 27.1279C49.9408 28.119 49.606 29.2784 48.8368 30.4608H41.2295H39.7142H39.6128C38.484 30.4608 37.556 29.5865 37.445 28.4806C37.4393 28.4634 37.4336 28.4481 37.4316 28.4327V19.3522V10.9471C37.4336 10.9337 37.4393 10.9146 37.445 10.9031C37.556 9.79529 38.484 8.91708 39.6128 8.91708C39.6492 8.91708 39.6836 8.92091 39.7142 8.92091L50.0556 8.919C49.9198 9.90817 49.5849 11.0982 48.8177 12.2768H41.2085V17.0371H48.7412C48.7718 17.0371 48.7947 17.0582 48.7947 17.0888V20.3911C48.7947 20.4179 48.7718 20.4428 48.7412 20.4428H41.2085V27.1279V27.1317Z" fill="white"/>
<path d="M30.1099 30.7385C29.2336 30.7385 28.6921 30.0535 28.6921 29.2155C28.6921 28.3182 29.312 27.6925 30.1099 27.6925C30.9001 27.6925 31.5181 28.3182 31.5181 29.2155C31.5181 30.1147 30.9001 30.7385 30.1099 30.7385ZM30.1099 27.5203C29.2125 27.5203 28.4453 28.1957 28.4453 29.2155C28.4453 30.1798 29.1379 30.9049 30.1099 30.9049C30.9957 30.9049 31.7668 30.2334 31.7668 29.2155C31.7668 28.1957 30.9957 27.5203 30.1099 27.5203Z" fill="white"/>
<path d="M29.7121 29.0762V28.4582H30.1292C30.3396 28.4582 30.5884 28.4907 30.5884 28.7471C30.5884 29.0513 30.3588 29.0762 30.0966 29.0762H29.7121ZM30.8964 28.7873C30.8964 28.3836 30.6477 28.2114 30.1655 28.2114H29.4059V30.2146H29.7369V29.3575H30.0431L30.5616 30.2146H30.9347L30.3722 29.3345C30.6764 29.2982 30.8964 29.1508 30.8964 28.7873Z" fill="white"/>
<path d="M135.902 19.2478C135.026 19.2478 134.481 18.5628 134.481 17.7248C134.481 16.8275 135.102 16.2018 135.902 16.2018C136.69 16.2018 137.31 16.8275 137.31 17.7248C137.31 18.6241 136.69 19.2478 135.902 19.2478ZM135.902 16.0296C135.005 16.0296 134.238 16.705 134.238 17.7248C134.238 18.6891 134.928 19.4142 135.902 19.4142C136.786 19.4142 137.555 18.7408 137.555 17.7248C137.555 16.705 136.786 16.0296 135.902 16.0296Z" fill="white"/>
<path d="M135.503 17.5845V16.9685H135.92C136.13 16.9685 136.379 16.9991 136.379 17.2555C136.379 17.5616 136.147 17.5845 135.889 17.5845H135.503ZM136.687 17.2956C136.687 16.8919 136.438 16.7197 135.956 16.7197H135.197V18.723H135.524V17.8677H135.834L136.352 18.723H136.723L136.163 17.8428C136.465 17.8084 136.687 17.6592 136.687 17.2956Z" fill="white"/>
<path d="M18.6732 12.2606L18.0303 10.4411L12.5774 3.1533L13.557 2.91031L22.9589 11.038L28.4922 9.45571C29.1427 9.28734 29.8813 9.25099 30.4438 9.25481C28.7046 5.50474 25.5228 2.42624 21.3212 0.930044C13.0155 -2.02983 3.88334 2.30953 0.929209 10.619C0.0146517 13.1886 -0.203464 15.8404 0.181109 18.3621L13.4365 13.7568L18.6732 12.2606Z" fill="white"/>
<path d="M31.0261 10.6911C30.5401 11.0068 29.8265 11.42 29.1186 11.6477L23.5738 13.23L19.8735 25.1078L18.913 25.4197L19.6936 16.3487L19.2574 14.4641L14.0609 15.9469L0.327209 19.1804C1.41396 24.4668 5.15638 29.0702 10.6112 31.0141C18.9187 33.974 28.0471 29.6327 31.0012 21.329C32.2755 17.7492 32.1932 14.0145 31.0261 10.6911Z" fill="white"/>
<path d="M19.2571 14.4654L19.6952 16.3481L18.9127 25.419L19.8731 25.1071L23.5735 13.2313L29.1182 11.649C29.8261 11.4213 30.5398 11.0042 31.0258 10.6923C30.8555 10.2044 30.6603 9.72421 30.4441 9.25545C29.8816 9.25162 29.1431 9.28989 28.4926 9.45443L22.9593 11.0406L13.5554 2.90903L12.5777 3.15393L18.0287 10.4417L18.6735 12.2593L13.4349 13.7594L0.181458 18.3608C0.22355 18.6364 0.271383 18.91 0.326869 19.1816L14.0625 15.9482L19.2571 14.4654Z" fill="#222831"/>
</svg>
